<?xml version="1.0" standalone="no"?>
<!DOCTYPE svg PUBLIC "-//W3C//DTD SVG 1.1//EN" "http://www.w3.org/Graphics/SVG/1.1/DTD/svg11.dtd">
<svg xmlns="http://www.w3.org/2000/svg">
<metadata>Generated by Fontastic.me</metadata>
<defs>
<font id="realty" horiz-adv-x="512">
<font-face font-family="realty" units-per-em="512" ascent="480" descent="-32"/>
<missing-glyph horiz-adv-x="512" />

<glyph glyph-name="account-circle-1" unicode="&#97;" d="M256 512c-141 0-256-115-256-256 0-133 107-256 256-256 69 0 134 27 182 76 48 48 74 112 74 180 0 141-115 256-256 256z m-157-430c22 12 54 23 86 35 11 4 22 8 32 12 4 1 7 5 7 10l0 53c0 4-3 8-7 10-1 0-25 10-25 54 0 6-4 11-10 11-1 0-3 4-3 10 0 6 2 10 2 11 6 0 11 5 11 11 0 2-1 5-3 11-2 11-11 42-3 51 3 3 9 3 15 2 5-1 11 2 12 8 3 14 28 24 59 24 31 0 56-10 59-24 5-20-4-47-8-60-2-6-3-9-3-12 0-6 4-11 10-11 1-1 3-5 3-11 0-6-2-10-2-10-6 0-11-5-11-11 0-44-24-54-25-54-4-1-7-5-7-10l0-53c0-5 3-9 7-10 11-5 23-9 34-13 33-12 63-23 84-34-43-39-98-61-157-61-59 0-114 22-157 61z m330 15c-22 14-55 26-92 39-9 3-18 7-28 10l0 39c11 7 30 24 32 63 8 5 14 16 14 29 0 13-5 23-12 28 6 16 15 46 9 71-8 30-48 40-80 40-29 0-64-8-76-31-11 1-20-3-26-9-16-18-7-52-1-71-7-5-12-15-12-28 0-13 6-24 14-29 2-39 21-56 32-63l0-39c-9-3-17-6-26-9-34-13-70-26-94-40-40 44-62 100-62 159 0 129 106 235 235 235 129 0 235-106 235-235 0-59-22-115-62-159z"/>
<glyph glyph-name="add-1" unicode="&#98;" d="M480 277l-224 0 0 224c0 6-5 11-11 11-6 0-10-5-10-11l0-224-224 0c-6 0-11-4-11-10 0-6 5-11 11-11l224 0 0-224c0-6 4-11 10-11 6 0 11 5 11 11l0 224 224 0c6 0 11 5 11 11 0 6-5 10-11 10z"/>
<glyph glyph-name="add-box" unicode="&#99;" d="M373 277l-117 0 0 118c0 6-5 10-11 10-6 0-10-4-10-10l0-118-118 0c-6 0-10-4-10-10 0-6 4-11 10-11l118 0 0-117c0-6 4-11 10-11 6 0 11 5 11 11l0 117 117 0c6 0 11 5 11 11 0 6-5 10-11 10z m-362-256l469 0c6 0 11 5 11 11l0 469c0 6-5 11-11 11l-469 0c-6 0-11-5-11-11l0-469c0-6 5-11 11-11z m10 470l448 0 0-448-448 0z"/>
<glyph glyph-name="add-circle-1" unicode="&#100;" d="M245 512c-135 0-245-110-245-245 0-136 110-246 245-246 136 0 246 110 246 246 0 135-110 245-246 245z m0-469c-123 0-224 100-224 224 0 123 101 224 224 224 124 0 224-101 224-224 0-124-100-224-224-224z m128 234l-117 0 0 118c0 6-5 10-11 10-6 0-10-4-10-10l0-118-118 0c-6 0-10-4-10-10 0-6 4-11 10-11l118 0 0-117c0-6 4-11 10-11 6 0 11 5 11 11l0 117 117 0c6 0 11 5 11 11 0 6-5 10-11 10z"/>
<glyph glyph-name="arrow-box-down-3" unicode="&#101;" d="M248 184c3-2 5-3 8-3 3 0 5 1 8 3l128 128c4 5 4 11 0 16-5 4-11 4-16 0l-120-121-120 121c-5 4-11 4-16 0-4-5-4-11 0-16z m253 328l-490 0c-6 0-11-5-11-11l0-490c0-6 5-11 11-11l490 0c6 0 11 5 11 11l0 490c0 6-5 11-11 11z m-10-491l-470 0 0 470 470 0z"/>
<glyph glyph-name="arrow-box-left-3" unicode="&#102;" d="M501 512l-490 0c-6 0-11-5-11-11l0-490c0-6 5-11 11-11l490 0c6 0 11 5 11 11l0 490c0 6-5 11-11 11z m-10-491l-470 0 0 470 470 0z m-179 99c2-2 5-3 8-3 3 0 5 1 7 3 5 5 5 11 0 15l-120 121 120 120c5 5 5 11 0 15-4 5-10 5-15 0l-128-128c-4-4-4-10 0-15z"/>
<glyph glyph-name="arrow-box-right-3" unicode="&#103;" d="M501 512l-490 0c-6 0-11-5-11-11l0-490c0-6 5-11 11-11l490 0c6 0 11 5 11 11l0 490c0 6-5 11-11 11z m-10-491l-470 0 0 470 470 0z m-306 99c2-2 4-3 7-3 3 0 6 1 8 3l128 128c4 5 4 11 0 15l-128 128c-5 5-11 5-15 0-5-4-5-10 0-15l120-120-120-121c-5-4-5-10 0-15z"/>
<glyph glyph-name="arrow-box-up-3" unicode="&#104;" d="M501 512l-490 0c-6 0-11-5-11-11l0-490c0-6 5-11 11-11l490 0c6 0 11 5 11 11l0 490c0 6-5 11-11 11z m-10-491l-470 0 0 470 470 0z m-355 163l120 121 120-121c3-2 5-3 8-3 3 0 5 1 8 3 4 5 4 11 0 16l-128 128c-5 4-11 4-16 0l-128-128c-4-5-4-11 0-16 5-4 11-4 16 0z"/>
<glyph glyph-name="arrow-circle-down-6" unicode="&#105;" d="M256 512c-141 0-256-115-256-256 0-141 115-256 256-256 141 0 256 115 256 256 0 141-115 256-256 256z m0-491c-129 0-235 106-235 235 0 129 106 235 235 235 129 0 235-106 235-235 0-129-106-235-235-235z m130 315l-130-170-130 170c-4 5-10 6-15 2-5-3-6-10-2-15l139-181c2-2 5-4 8-4 3 0 6 2 8 4l139 181c4 5 3 12-2 15-5 4-11 3-15-2z"/>
<glyph glyph-name="arrow-circle-left-6" unicode="&#106;" d="M256 512c-141 0-256-115-256-256 0-141 115-256 256-256 141 0 256 115 256 256 0 141-115 256-256 256z m0-491c-129 0-235 106-235 235 0 129 106 235 235 235 129 0 235-106 235-235 0-129-106-235-235-235z m-89 235l170 130c5 4 6 10 2 15-3 5-10 6-15 2l-181-139c-3-2-4-5-4-8 0-3 1-7 4-9l181-138c2-2 4-2 7-2 3 0 6 1 8 4 4 5 3 11-2 15z"/>
<glyph glyph-name="arrow-circle-right-6" unicode="&#107;" d="M256 512c-141 0-256-115-256-256 0-141 115-256 256-256 141 0 256 115 256 256 0 141-115 256-256 256z m0-491c-129 0-235 106-235 235 0 129 106 235 235 235 129 0 235-106 235-235 0-129-106-235-235-235z m-68 382c-5 4-12 3-15-2-4-5-3-11 2-15l170-130-170-130c-5-4-6-10-2-15 2-3 5-4 8-4 3 0 5 0 7 2l181 138c3 2 5 6 5 9 0 3-2 6-5 8z"/>
<glyph glyph-name="arrow-circle-up-6" unicode="&#108;" d="M256 512c-141 0-256-115-256-256 0-141 115-256 256-256 141 0 256 115 256 256 0 141-115 256-256 256z m0-491c-129 0-235 106-235 235 0 129 106 235 235 235 129 0 235-106 235-235 0-129-106-235-235-235z m8 348c-4 6-12 6-16 0l-139-181c-4-5-3-12 2-15 5-4 11-3 15 2l130 170 130-170c2-3 5-4 9-4 2 0 4 0 6 2 5 3 6 10 2 15z"/>
<glyph glyph-name="arrow-down-7" unicode="&#109;" d="M508 285c-4 4-11 4-15-1l-216-245 0 462c0 6-4 11-10 11-6 0-11-5-11-11l0-462-216 245c-4 5-11 5-15 1-4-4-5-10-1-15l235-266c0-1 0-1 0-1 1 0 2-1 2-2 1 0 1 0 1 0 2-1 3-1 5-1 1 0 3 0 4 1 0 0 1 0 1 0 1 1 2 2 2 2 0 0 1 0 1 1l234 266c4 5 4 11-1 15z"/>
<glyph glyph-name="arrow-down-9" unicode="&#110;" d="M248 248c3-2 5-3 8-3 3 0 5 1 8 3l245 246c4 4 4 11 0 15-4 4-11 4-15 0l-238-238-238 238c-4 4-11 4-15 0-4-4-4-11 0-15z m246 16l-238-238-238 238c-4 4-11 4-15 0-4-5-4-11 0-16l245-245c3-2 5-3 8-3 3 0 5 1 8 3l245 245c4 5 4 11 0 16-4 4-11 4-15 0z"/>
<glyph glyph-name="arrow-down-12" unicode="&#111;" d="M508 403c-4 4-11 3-15-1l-237-269-237 269c-4 4-11 5-15 1-5-4-5-11-1-15l245-278c2-2 5-3 8-3 3 0 6 1 8 3l245 278c4 4 4 11-1 15z"/>
<glyph glyph-name="arrow-left-7" unicode="&#112;" d="M501 256l-462 0 245 216c5 4 5 11 1 15-4 4-10 5-15 1l-266-235c0 0 0 0-1 0 0-1-1-2-2-3 0 0 0 0 0 0-1-2-1-3-1-5 0-1 0-3 1-4 0 0 0-1 0-1 1-1 2-2 2-3 1 0 1 0 1 0l266-234c2-2 5-3 7-3 3 0 6 1 8 4 4 4 4 11-1 15l-245 216 462 0c6 0 11 4 11 10 0 6-5 11-11 11z"/>
<glyph glyph-name="arrow-left-9" unicode="&#113;" d="M271 256l238 238c4 4 4 11 0 15-4 4-11 4-15 0l-246-245c-4-5-4-11 0-16l246-245c2-2 5-3 7-3 3 0 6 1 8 3 4 4 4 11 0 15z m-245 0l238 238c4 4 4 11 0 15-5 4-11 4-16 0l-245-245c-4-5-4-11 0-16l245-245c3-2 5-3 8-3 3 0 5 1 8 3 4 4 4 11 0 15z"/>
<glyph glyph-name="arrow-left-12" unicode="&#114;" d="M133 256l269 237c4 4 5 11 1 15-4 5-11 5-15 1l-278-245c-2-2-3-5-3-8 0-3 1-6 3-8l278-245c2-2 4-3 7-3 3 0 6 1 8 4 4 4 3 11-1 15z"/>
<glyph glyph-name="arrow-right-7" unicode="&#115;" d="M511 240c0 0 0 1 0 1 1 1 1 3 1 4 0 2 0 3-1 5 0 0 0 0 0 0-1 1-2 2-2 3-1 0-1 0-1 0l-266 235c-5 4-11 3-15-1-4-4-4-11 1-15l245-216-462 0c-6 0-11-5-11-11 0-6 5-10 11-10l462 0-245-216c-5-4-5-11-1-15 2-3 5-4 8-4 2 0 5 1 7 3l266 234c0 0 0 0 1 0 0 1 1 2 2 3z"/>
<glyph glyph-name="arrow-right-9" unicode="&#116;" d="M264 264l-246 245c-4 4-11 4-15 0-4-4-4-11 0-15l238-238-238-238c-4-4-4-11 0-15 2-2 5-3 8-3 2 0 5 1 7 3l246 245c4 5 4 11 0 16z m245 0l-245 245c-5 4-11 4-16 0-4-4-4-11 0-15l238-238-238-238c-4-4-4-11 0-15 3-2 5-3 8-3 3 0 5 1 8 3l245 245c4 5 4 11 0 16z"/>
<glyph glyph-name="arrow-right-12" unicode="&#117;" d="M402 264l-278 245c-4 4-11 4-15-1-4-4-3-11 1-15l269-237-269-237c-4-4-5-11-1-15 2-3 5-4 8-4 3 0 5 1 7 3l278 245c2 2 3 5 3 8 0 3-1 6-3 8z"/>
<glyph glyph-name="arrow-up-7" unicode="&#118;" d="M488 242l-235 266c0 0 0 0 0 0-2 3-5 4-8 4-3 0-5-1-7-4-1 0-1 0-1 0l-234-266c-4-5-4-12 1-15 4-4 11-4 15 1l216 245 0-462c0-6 4-11 10-11 6 0 11 5 11 11l0 462 216-245c2-3 5-4 8-4 3 0 5 1 7 3 4 3 5 10 1 15z"/>
<glyph glyph-name="arrow-up-9" unicode="&#119;" d="M264 264c-5 4-11 4-16 0l-245-246c-4-4-4-11 0-15 4-4 11-4 15 0l238 238 238-238c2-2 5-3 7-3 3 0 6 1 8 3 4 4 4 11 0 15z m-246-16l238 238 238-238c2-2 5-3 7-3 3 0 6 1 8 3 4 5 4 11 0 16l-245 245c-5 4-11 4-16 0l-245-245c-4-5-4-11 0-16 4-4 11-4 15 0z"/>
<glyph glyph-name="arrow-up-12" unicode="&#120;" d="M509 124l-245 278c-4 4-12 4-16 0l-245-278c-4-4-4-11 1-15 4-4 11-3 15 1l237 269 237-269c2-2 5-3 8-3 3 0 5 1 7 2 5 4 5 11 1 15z"/>
<glyph glyph-name="at-sign" unicode="&#121;" d="M256 512c-141 0-256-115-256-256 0-141 115-256 256-256 52 0 102 15 145 45 5 3 6 10 2 14-3 5-10 6-14 3-39-27-85-41-133-41-129 0-235 106-235 235 0 129 106 235 235 235 129 0 235-106 235-235l0-21c0-36-29-64-64-64-36 0-64 28-64 64l0 21c0 59-48 107-107 107-59 0-107-48-107-107 0-59 48-107 107-107 39 0 73 22 92 53 12-31 43-53 79-53 47 0 85 39 85 86l0 21c0 141-115 256-256 256z m0-341c-47 0-85 38-85 85 0 47 38 85 85 85 47 0 85-38 85-85 0-47-38-85-85-85z"/>
<glyph glyph-name="bank-notes-3" unicode="&#122;" d="M373 192c2 0 4 1 6 2l128 85c5 3 6 10 3 15-3 5-10 6-15 3l-125-84-93 0 0 22 96 0c2 0 4 0 6 1l128 86c5 3 6 10 3 15-3 4-10 6-15 3l-125-84-93 0 0 21 96 0c2 0 4 1 6 2l128 85c4 3 6 8 5 12-2 5-6 8-11 8l-103 0 3 2c4 3 5 8 4 12-2 4-6 7-10 7l-150 0c-2 0-4 0-6-2l-26-19-74 0c-2 0-4-1-6-2l-128-85c-4-3-6-8-5-12 2-5 6-8 11-8l96 0 0-21-96 0c-6 0-11-5-11-11 0-6 5-10 11-10l96 0 0-22-96 0c-6 0-11-4-11-10 0-6 5-11 11-11l96 0 0-21-96 0c-6 0-11-5-11-11 0-6 5-11 11-11l96 0 0-21-96 0c-6 0-11-5-11-11 0-6 5-10 11-10l96 0 0-11c0-6 4-11 10-11l150 0c6 0 10 5 10 11l0 11 96 0c2 0 4 0 6 1l128 86c5 3 6 10 3 15-3 5-10 6-15 3l-125-84-93 0 0 21 96 0c2 0 4 1 6 2l128 85c5 4 6 10 3 15-3 5-10 6-15 3l-125-83-93 0 0 21z m93 171l-96-64-86 0 86 64z m-420-64l96 64 43 0-74-56c-3-2-4-5-4-8z m210-192l-128 0 0 186 121 91 114 0-103-77c-2-2-4-5-4-8z m-64 160c12 0 21-10 21-22 0-6 5-10 11-10 6 0 11 4 11 10 0 20-14 37-32 41l0 13c0 6-5 10-11 10-6 0-11-4-11-10l0-13c-18-4-32-21-32-41 0-23 19-42 43-42 12 0 21-10 21-22 0-11-9-21-21-21-12 0-21 10-21 21 0 6-5 11-11 11-6 0-11-5-11-11 0-19 14-36 32-41l0-12c0-6 5-11 11-11 6 0 11 5 11 11l0 12c18 5 32 22 32 41 0 24-19 43-43 43-12 0-21 10-21 21 0 12 9 22 21 22z"/>
<glyph glyph-name="bath-tub" unicode="&#65;" d="M501 213l-32 0 0 236c0 21-12 40-31 49-20 8-42 5-58-10l-12-12c-24 16-58 14-79-7l-12-12c-4-4-4-11 0-15l72-71c2-2 5-3 8-3 2 0 5 1 7 3l12 12c21 21 23 54 7 78l12 12c9 8 22 10 34 5 9-4 19-14 19-29l0-236-149 0 0 11c0 18-15 32-32 32l-107 0c-18 0-32-14-32-32l0-11-117 0c-6 0-11-4-11-10 0-112 91-203 203-203l106 0c112 0 203 91 203 203 0 6-5 10-11 10z m-140 185l-4-5-57 57 4 4c16 15 42 15 57 0 15-15 15-41 0-56z m-212-174c0 6 5 11 11 11l107 0c6 0 10-5 10-11l0-117-128 0z m160-203l-106 0c-97 0-176 76-181 171l106 0 0-96c0-6 5-11 11-11l149 0c6 0 11 5 11 11l0 96 191 0c-5-95-84-171-181-171z m-104 386c1 0 3 0 4 1l39 18c5 2 8 9 5 14-2 5-9 8-14 5l-39-18c-5-2-8-8-5-14 2-4 6-6 10-6z m117-117c4 0 8 2 10 6l17 39c2 6 0 12-6 14-5 3-11 0-14-5l-17-39c-2-6 1-12 6-14 1-1 3-1 4-1z m-78 50c2-2 5-3 8-3 2 0 5 1 7 3l30 30c5 4 5 11 0 15-4 4-10 4-15 0l-30-30c-4-4-4-11 0-15z"/>
<glyph glyph-name="bed-single" unicode="&#66;" d="M512 162c-1 1 0 1-1 1l-84 255 0 51c0 24-19 43-43 43l-256 0c-24 0-43-19-43-43l0-51-84-255c-1 0 0 0-1-1 0 0 0-1 0-2l0-96c0-24 19-43 43-43l21 0 0-10c0-6 5-11 11-11 6 0 10 5 10 11l0 10 342 0 0-10c0-6 4-11 10-11 6 0 11 5 11 11l0 10 21 0c24 0 43 19 43 43l0 96c0 1 0 2 0 2z m-408 243l34 0-9-28c-2-4-1-7 1-10 2-3 5-4 9-4l234 0c0 0 1 0 1 0 6 0 10 4 10 10 0 3 0 5-1 6l-9 26 34 0 22-64-348 0z m49-21l15 43 176 0 15-43z m-25 107l256 0c12 0 21-10 21-22l0-42-38 0-5 14c-1 4-5 7-10 7l-192 0c-5 0-9-3-10-7l-5-14-38 0 0 42c0 12 9 22 21 22z m-53-171l362 0 50-149-462 0z m416-256c0-12-10-21-22-21l-426 0c-12 0-22 9-22 21l0 85 470 0z"/>
<glyph glyph-name="bin-1" unicode="&#67;" d="M491 448l-150 0 0 53c0 6-4 11-10 11l-171 0c-6 0-11-5-11-11l0-53-128 0c-6 0-10-5-10-11 0-6 4-10 10-10l43 0 0-416c0-6 5-11 11-11l341 0c6 0 11 5 11 11l0 416 64 0c6 0 10 4 10 10 0 6-4 11-10 11z m-320 43l149 0 0-43-149 0z m234-470l-320 0 0 406 320 0z m-245 352c-6 0-11-4-11-10l0-256c0-6 5-11 11-11 6 0 11 5 11 11l0 256c0 6-5 10-11 10z m85 0c-6 0-10-4-10-10l0-256c0-6 4-11 10-11 6 0 11 5 11 11l0 256c0 6-5 10-11 10z m75-10l0-256c0-6 5-11 11-11 6 0 10 5 10 11l0 256c0 6-4 10-10 10-6 0-11-4-11-10z"/>
<glyph glyph-name="calendar-1" unicode="&#68;" d="M501 469l-74 0 0 32c0 6-5 11-11 11l-64 0c-6 0-11-5-11-11l0-32-170 0 0 32c0 6-5 11-11 11l-64 0c-6 0-11-5-11-11l0-32-74 0c-6 0-11-4-11-10l0-448c0-6 5-11 11-11l490 0c6 0 11 5 11 11l0 448c0 6-5 10-11 10z m-138 22l42 0 0-64-42 0z m-256 0l42 0 0-64-42 0z m-22-43l0-32c0-6 5-11 11-11l64 0c6 0 11 5 11 11l0 32 170 0 0-32c0-6 5-11 11-11l64 0c6 0 11 5 11 11l0 32 64 0 0-85-470 0 0 85z m-64-427l0 320 470 0 0-320z m224 86l-32 0 0 160c0 4-2 8-6 10-4 1-9 0-12-3l-43-42c-4-5-4-11 0-16 5-4 11-4 16 0l24 25 0-134-32 0c-6 0-11-5-11-11 0-6 5-11 11-11l85 0c6 0 11 5 11 11 0 6-5 11-11 11z m118 170l-107 0c-6 0-11-4-11-10l0-22c0-6 5-10 11-10 6 0 11 4 11 10l0 11 80 0-24-64-35 0c-6 0-11-5-11-11 0-6 5-10 11-10l27 0-26-71c-2-6 0-12 6-14 5-2 12 1 14 6l29 79 14 0c6 0 11 4 11 10 0 6-5 11-11 11l-6 0 27 71c1 3 0 7-2 10-2 3-5 4-8 4z"/>
<glyph glyph-name="check-1" unicode="&#69;" d="M142 3l-139 139c-4 4-4 11 0 15 4 4 11 4 15 0l130-130 345 481c3 4 10 5 15 2 4-3 5-10 2-15l-352-491c-4-5-12-6-16-1z"/>
<glyph glyph-name="check-2" unicode="&#70;" d="M509 397l-75 75c-4 4-11 4-15 0l-259-260-67 68c-4 4-11 4-15 0l-75-75c-4-4-4-11 0-15l149-150c5-4 11-4 16 0l341 342c4 4 4 11 0 15z m-349-334l-134 134 59 60 67-67c5-4 11-4 16 0l259 259 59-60z"/>
<glyph glyph-name="check-box-2" unicode="&#71;" d="M195 174c4-4 11-4 15 0l160 149c4 4 4 11 0 15-4 4-10 4-15 0l-152-142-46 46c-4 4-11 4-15 0-4-4-4-11 0-15z m306 338l-490 0c-6 0-11-5-11-11l0-490c0-6 5-11 11-11l490 0c6 0 11 5 11 11l0 490c0 6-5 11-11 11z m-10-491l-470 0 0 470 470 0z"/>
<glyph glyph-name="check-circle-2" unicode="&#72;" d="M355 338l-152-142-46 46c-4 4-11 4-15 0-4-4-4-11 0-15l53-53c4-4 11-4 15 0l160 149c4 4 4 11 0 15-4 4-10 4-15 0z m-99 174c-141 0-256-115-256-256 0-141 115-256 256-256 141 0 256 115 256 256 0 141-115 256-256 256z m0-491c-129 0-235 106-235 235 0 129 106 235 235 235 129 0 235-106 235-235 0-129-106-235-235-235z"/>
<glyph glyph-name="control-play" unicode="&#73;" d="M11 0c-2 0-4 1-6 2-3 2-5 5-5 9l0 490c0 4 2 7 5 9 3 2 7 3 10 1l491-245c4-2 6-6 6-10 0-4-2-8-6-10l-491-245c-1-1-3-1-4-1z m10 484l0-456 456 228z"/>
<glyph glyph-name="cross-over" unicode="&#74;" d="M11 363l117 0c56 0 86-68 86-69 2-5 9-8 14-5 6 2 8 8 6 14-2 3-36 81-106 81l-117 0c-6 0-11-5-11-11 0-6 5-10 11-10z m373 0l97 0-31-48c-3-5-2-11 3-15 5-3 11-2 15 3l42 64c3 4 3 9 0 12l-42 64c-4 5-10 6-15 3-5-3-6-10-3-15l31-47-97 0c-59 0-99-62-137-122-35-56-72-113-119-113l-117 0c-6 0-11-4-11-10 0-6 5-11 11-11l117 0c59 0 99 62 137 122 35 55 72 113 119 113z m84-154c-4 4-10 6-15 3-5-4-6-10-3-15l31-48-97 0c-57 0-97 59-98 60-3 4-10 6-15 2-4-3-6-9-3-14 2-3 47-69 116-69l97 0-31-47c-3-5-2-12 3-15 5-3 11-2 15 3l42 64c3 3 3 8 0 12z"/>
<glyph glyph-name="crosshair-2" unicode="&#75;" d="M480 277l-51 0c-5 93-80 168-173 173l0 51c0 6-5 11-11 11-6 0-10-5-10-11l0-51c-93-5-168-80-173-173l-51 0c-6 0-11-4-11-10 0-6 5-11 11-11l51 0c5-93 80-168 173-173l0-51c0-6 4-11 10-11 6 0 11 5 11 11l0 51c93 5 168 80 173 173l51 0c6 0 11 5 11 11 0 6-5 10-11 10z m-224-173l0 50c0 6-5 11-11 11-6 0-10-5-10-11l0-50c-82 6-147 71-152 152l50 0c6 0 11 5 11 11 0 6-5 10-11 10l-50 0c5 82 70 147 152 152l0-50c0-6 4-11 10-11 6 0 11 5 11 11l0 50c81-5 146-70 152-152l-50 0c-6 0-11-4-11-10 0-6 5-11 11-11l50 0c-6-81-71-146-152-152z"/>
<glyph glyph-name="crosshair-3" unicode="&#76;" d="M245 327c6 0 11 5 11 11l0 163c0 6-5 11-11 11-6 0-10-5-10-11l0-163c0-6 4-11 10-11z m-71-50l-163 0c-6 0-11-4-11-10 0-6 5-11 11-11l163 0c6 0 11 5 11 11 0 6-5 10-11 10z m71-71c-6 0-10-5-10-11l0-163c0-6 4-11 10-11 6 0 11 5 11 11l0 163c0 6-5 11-11 11z m235 71l-163 0c-6 0-11-4-11-10 0-6 5-11 11-11l163 0c6 0 11 5 11 11 0 6-5 10-11 10z m-214-10c0-12-9-21-21-21-11 0-21 9-21 21 0 11 10 21 21 21 12 0 21-10 21-21z"/>
<glyph glyph-name="door-simple" unicode="&#78;" d="M437 64l-32 0 0 437c0 6-4 11-10 11l-299 0c-6 0-11-5-11-11l0-437-32 0c-6 0-10-5-10-11l0-42c0-6 4-11 10-11l384 0c6 0 11 5 11 11l0 42c0 6-5 11-11 11z m-330 427l277 0 0-427-277 0z m320-470l-363 0 0 22 363 0z m-84 320c-6 1-11-3-12-8-1-6 3-12 8-13 1 0 2 0 2 0l0-64c-6 0-10-5-10-11 0-6 4-10 10-10 11 0 22 7 22 21l0 64c0 12-10 20-20 21z"/>
<glyph glyph-name="email" unicode="&#79;" d="M448 427l-384 0c-24 0-43-19-43-43l0-235c0-23 19-42 43-42l384 0c24 0 43 19 43 42l0 235c0 24-19 43-43 43z m0-22c1 0 2 0 3 0l-195-157-195 157c1 0 2 0 3 0z m21-256c0-11-9-21-21-21l-384 0c-12 0-21 10-21 21l0 235c0 2 0 4 1 7l205-165c2-1 5-2 7-2 2 0 5 1 7 2l205 165c1-3 1-5 1-7z"/>
<glyph glyph-name="email-1" unicode="&#80;" d="M256 248l215 172c-6 4-14 7-23 7l-384 0c-8 0-16-3-22-7z m230 156l-224-178c-3-3-9-3-12 0l-223 179c-4-7-6-13-6-21l0-235c0-23 19-42 43-42l384 0c24 0 43 19 43 42l0 235c0 7-2 14-5 20z"/>
<glyph glyph-name="expand-diagonal-2" unicode="&#81;" d="M174 189l-153-153 0 81c0 6-4 11-10 11-6 0-11-5-11-11l0-106c0-6 5-11 11-11l106 0c6 0 11 5 11 11 0 6-5 10-11 10l-81 0 153 153c4 4 4 11 0 15-4 4-11 4-15 0z m327 323l-106 0c-6 0-11-5-11-11 0-6 5-10 11-10l81 0-153-153c-4-4-4-11 0-15 4-4 11-4 15 0l153 153 0-81c0-6 4-11 10-11 6 0 11 5 11 11l0 106c0 6-5 11-11 11z"/>
<glyph glyph-name="fax-machine" unicode="&#82;" d="M277 469l96 0 0-21-96 0z m0-42l150 0 0-22-150 0z m203-43l-11 0 0 75c0 3-1 6-4 8l-53 43c-2 1-4 2-7 2l-160 0c-6 0-10-5-10-11l0-117-22 0 0 11c0 29-24 53-53 53l-53 0 0 53c0 6-5 11-11 11-6 0-11-5-11-11l0-54c-24-5-42-27-42-52l0-11-11 0c-18 0-32-14-32-32l0-277c0-18 14-32 32-32l12 0c5-25 26-43 52-43l64 0c26 0 47 18 52 43l268 0c18 0 32 14 32 32l0 277c0 18-14 32-32 32z m-459-309l0 277c0 6 5 11 11 11l11 0 0-299-11 0c-6 0-11 5-11 11z m171-22c0-17-14-32-32-32l-64 0c-18 0-32 15-32 32l0 342c0 17 14 32 32 32l64 0c18 0 32-15 32-32z m64 438l146 0 46-37 0-70-192 0z m235-416c0-6-5-11-11-11l-267 0 0 299 267 0c6 0 11-5 11-11z m-75 266l-128 0c-6 0-11-4-11-10l0-43c0-6 5-11 11-11l128 0c6 0 11 5 11 11l0 43c0 6-5 10-11 10z m-11-42l-106 0 0 21 106 0z m-128-64l22 0 0-22-22 0z m64 0l22 0 0-22-22 0z m64 0l22 0 0-22-22 0z m-128-43l22 0 0-21-22 0z m64 0l22 0 0-21-22 0z m64 0l22 0 0-21-22 0z m-128-43l22 0 0-21-22 0z m64 0l22 0 0-21-22 0z m64 0l22 0 0-21-22 0z"/>
<glyph glyph-name="file-excel-1" unicode="&#83;" d="M469 377c-1 2-2 3-3 4l-128 128c-1 1-2 2-3 2-2 1-3 1-4 1l-278 0c-6 0-10-5-10-11l0-490c0-6 4-11 10-11l406 0c6 0 10 5 10 11l0 362c0 2 0 3 0 4z m-128 99l92-92-92 0z m-277-455l0 470 256 0 0-118c0-6 5-10 11-10l117 0 0-342z m235 107l-43 0 0 96c0 6-5 11-11 11-6 0-10-5-10-11l0-107c0-6 4-10 10-10l54 0c6 0 10 4 10 10 0 6-4 11-10 11z m77 53c0 0-2 0-3 1-11 2-15 4-15 14 0 9 7 17 15 17 9 0 16-7 16-16 0-6 5-11 11-10 6 0 11 5 10 11-1 21-17 37-37 37-20 0-37-18-37-39 0-19 11-31 34-36 1 0 2 0 4 0 10-2 15-5 15-14 0-10-7-18-16-18-8 0-15 7-15 16-1 6-6 11-12 10-6 0-10-5-10-11 1-20 18-36 37-36 21 0 37 17 37 39 0 19-11 31-34 35z m-189 52c-5 3-12 2-15-4l-23-38-23 38c-3 6-9 7-14 4-5-3-7-9-4-14l29-48-29-48c-3-5-1-12 4-15 2-1 3-1 5-1 4 0 7 2 9 5l23 38 23-38c2-3 6-5 9-5 2 0 4 0 6 1 5 3 6 10 3 15l-28 48 28 48c4 5 2 11-3 14z"/>
<glyph glyph-name="file-music-1" unicode="&#84;" d="M426 377c-1 2-1 3-2 4l-128 128c-1 1-3 2-4 2-1 1-3 1-4 1l-235 0c-6 0-10-5-10-11l0-490c0-6 4-11 10-11l363 0c6 0 11 5 11 11l0 362c0 2-1 3-1 4z m-127 99l91-92-91 0z m-235-455l0 470 213 0 0-118c0-6 5-10 11-10l117 0 0-342z m217 294c-5-1-9-5-10-10l-11-126c-12 8-27 13-45 13-8 0-15-1-22-2-41-9-68-39-62-68 5-23 30-39 63-39 7 0 14 1 21 2 32 7 56 27 61 50 1 1 1 2 1 3l1 2c0 1 0 2 0 3l14 150c11 0 29-3 40-15 8-7 11-18 9-32 0-6 4-11 10-11 5-1 11 3 12 9 1 21-4 37-16 49-23 24-64 22-66 22z m-70-209c-28-6-56 4-59 21-4 17 17 36 45 42 6 1 12 2 18 2 21 0 38-9 41-22 1-2 1-4 0-5l0-3c-2-15-21-30-45-35z"/>
<glyph glyph-name="file-new-1" unicode="&#85;" d="M447 377c0 2-1 3-2 4l-128 128c-1 1-2 2-4 2-1 1-2 1-4 1l-234 0c-6 0-11-5-11-11l0-490c0-6 5-11 11-11l362 0c6 0 11 5 11 11l0 362c0 2 0 3-1 4z m-127 99l92-92-92 0z m-235-455l0 470 214 0 0-118c0-6 4-10 10-10l118 0 0-342z"/>
<glyph glyph-name="file-pdf-1" unicode="&#86;" d="M469 377c-1 2-2 3-3 4l-128 128c-1 1-2 2-3 2-2 1-3 1-4 1l-278 0c-6 0-10-5-10-11l0-490c0-6 4-11 10-11l406 0c6 0 10 5 10 11l0 362c0 2 0 3 0 4z m-128 99l92-92-92 0z m-277-455l0 470 256 0 0-118c0-6 5-10 11-10l117 0 0-342z m203 214l-22 0c-6 0-10-5-10-11l0-107c0-6 4-10 10-10l22 0c30 0 53 27 53 64 0 36-23 64-53 64z m0-107l-11 0 0 85 11 0c18 0 32-18 32-42 0-25-14-43-32-43z m138 107l-53 0c-6 0-11-5-11-11l0-107c0-6 5-10 11-10 6 0 11 4 11 10l0 54 21 0c6 0 11 4 11 10 0 6-5 11-11 11l-21 0 0 21 42 0c6 0 11 5 11 11 0 6-5 11-11 11z m-240 0l-26 0c-6 0-11-5-11-11l0-107c0-6 5-10 11-10 6 0 10 4 10 10l0 43 16 0c21 0 38 17 38 37 0 21-17 38-38 38z m0-54l-16 0 0 32 16 0c9 0 16-7 16-16 0-8-7-16-16-16z"/>
<glyph glyph-name="file-picture" unicode="&#87;" d="M426 377c-1 2-1 3-2 4l-128 128c-1 1-3 2-4 2-1 1-3 1-4 1l-277 0c-6 0-11-5-11-11l0-490c0-6 5-11 11-11l405 0c6 0 11 5 11 11l0 362c0 2-1 3-1 4z m-127 99l91-92-91 0z m-278-455l0 470 256 0 0-118c0-6 5-10 11-10l117 0 0-342z m267 259c-2 4-5 7-10 8-4 0-8-2-10-6l-57-104-33 32c-2 3-6 4-9 3-3 0-6-3-8-6l-53-106c-2-4-2-7 0-11 2-3 6-5 9-5l214 0c3 0 6 2 8 5 2 2 3 6 2 9z m-153-173l39 78 32-33c2-2 6-3 9-3 3 1 6 3 8 6l51 95 42-143z m14 170c24 0 43 19 43 43 0 24-19 43-43 43-23 0-42-19-42-43 0-24 19-43 42-43z m0 64c12 0 22-9 22-21 0-12-10-21-22-21-11 0-21 9-21 21 0 12 10 21 21 21z"/>
<glyph glyph-name="file-text" unicode="&#88;" d="M352 299l-213 0c-6 0-11-5-11-11l0-64c0-6 5-11 11-11 6 0 10 5 10 11l0 53 86 0 0-192-54 0c-6 0-10-4-10-10 0-6 4-11 10-11l128 0c6 0 11 5 11 11 0 6-5 10-11 10l-53 0 0 192 85 0 0-53c0-6 5-11 11-11 6 0 11 5 11 11l0 64c0 6-5 11-11 11z m117 78c-1 2-2 3-3 4l-128 128c-1 1-2 2-3 2-2 1-3 1-4 1l-278 0c-6 0-10-5-10-11l0-490c0-6 4-11 10-11l406 0c6 0 10 5 10 11l0 362c0 2 0 3 0 4z m-128 99l92-92-92 0z m-277-455l0 470 256 0 0-118c0-6 5-10 11-10l117 0 0-342z"/>
<glyph glyph-name="file-video-2" unicode="&#89;" d="M373 253c-6 4-15 5-24 1l-50-24 0 15c0 18-15 32-32 32l-107 0c-18 0-32-14-32-32l0-106c0-18 14-32 32-32l107 0c17 0 32 14 32 32l0 15 51-24c3-2 7-3 11-3 4 0 9 2 12 4 7 5 11 12 11 22l0 78c0 10-4 17-11 22z m-96-114c0-6-4-11-10-11l-107 0c-6 0-11 5-11 11l0 106c0 6 5 11 11 11l107 0c6 0 10-5 10-11z m86 14c0-3-1-4-1-4-1 0-2-1-4 0l-59 28 0 30 59 28c2 0 3 0 4 0 0 0 1-1 1-4z m106 224c-1 2-2 3-3 4l-128 128c-1 1-2 2-3 2-2 1-3 1-4 1l-278 0c-6 0-10-5-10-11l0-490c0-6 4-11 10-11l406 0c6 0 10 5 10 11l0 362c0 2 0 3 0 4z m-128 99l92-92-92 0z m-277-455l0 470 256 0 0-118c0-6 5-10 11-10l117 0 0-342z"/>
<glyph glyph-name="file-words-1" unicode="&#90;" d="M469 377c-1 2-2 3-3 4l-128 128c-1 1-2 2-3 2-2 1-3 1-4 1l-278 0c-6 0-10-5-10-11l0-490c0-6 4-11 10-11l406 0c6 0 10 5 10 11l0 362c0 2 0 3 0 4z m-128 99l92-92-92 0z m-277-455l0 470 256 0 0-118c0-6 5-10 11-10l117 0 0-342z m297 192c6 0 13-1 17-18 1-5 7-9 13-8 5 1 9 7 8 13-6 29-24 35-38 35-41 0-41-44-41-64 0-21 0-64 41-64 14 0 32 6 38 35 1 5-3 11-8 12-6 1-12-2-13-8-4-17-11-18-17-18-11 0-20 3-20 43 0 39 9 42 20 42z m-105 22c-43 0-43-45-43-64 0-19 0-64 43-64 43 0 43 45 43 64 0 19 0 64-43 64z m0-107c-12 0-21 3-21 43 0 39 9 42 21 42 12 0 21-3 21-42 0-40-9-43-21-43z m-117 107l-22 0c-6 0-10-5-10-11l0-107c0-6 4-10 10-10l22 0c30 0 53 27 53 64 0 36-23 64-53 64z m0-107l-11 0 0 85 11 0c18 0 32-18 32-42 0-25-14-43-32-43z"/>
<glyph glyph-name="file-zipped" unicode="&#48;" d="M445 424l-85 85c-2 2-5 3-8 3l-277 0c-6 0-11-5-11-11l0-490c0-6 5-11 11-11l362 0c6 0 11 5 11 11l0 405c0 3-1 6-3 8z m-18-403l-342 0 0 470 150 0 0-32c0-6 4-11 10-11l11 0 0-85-43 0 0 21 22 0 0 21-22 0 0 54c0 6-4 10-10 10-6 0-11-4-11-10l0-107c0-6 5-11 11-11l64 0c6 0 10 5 10 11l0 107c0 6-4 10-10 10l-11 0 0 22 92 0 79-79z m-171 288c0 6-5 11-11 11l-21 0c-6 0-11-5-11-11 0-6 5-10 11-10l21 0c6 0 11 4 11 10z m-43-42c0-6 5-11 11-11l21 0c6 0 11 5 11 11 0 6-5 10-11 10l-21 0c-6 0-11-4-11-10z m0-43c0-6 5-11 11-11l21 0c6 0 11 5 11 11 0 6-5 11-11 11l-21 0c-6 0-11-5-11-11z m0-43c0-6 5-10 11-10l21 0c6 0 11 4 11 10 0 6-5 11-11 11l-21 0c-6 0-11-5-11-11z m0-42c0-6 5-11 11-11l21 0c6 0 11 5 11 11 0 6-5 10-11 10l-21 0c-6 0-11-4-11-10z m0-43c0-6 5-11 11-11l21 0c6 0 11 5 11 11 0 6-5 11-11 11l-21 0c-6 0-11-5-11-11z m0-43c0-6 5-10 11-10l21 0c6 0 11 4 11 10 0 6-5 11-11 11l-21 0c-6 0-11-5-11-11z m64 235c0 6-4 11-10 11l-22 0c-6 0-10-5-10-11 0-6 4-11 10-11l22 0c6 0 10 5 10 11z m-42-43c0-6 4-10 10-10l22 0c6 0 10 4 10 10 0 6-4 11-10 11l-22 0c-6 0-10-5-10-11z m0-42c0-6 4-11 10-11l22 0c6 0 10 5 10 11 0 6-4 10-10 10l-22 0c-6 0-10-4-10-10z m0-43c0-6 4-11 10-11l22 0c6 0 10 5 10 11 0 6-4 11-10 11l-22 0c-6 0-10-5-10-11z m0-43c0-6 4-10 10-10l22 0c6 0 10 4 10 10 0 6-4 11-10 11l-22 0c-6 0-10-5-10-11z m0-42c0-6 4-11 10-11l22 0c6 0 10 5 10 11 0 6-4 10-10 10l-22 0c-6 0-10-4-10-10z"/>
<glyph glyph-name="garage" unicode="&#49;" d="M509 285l-246 224c-4 4-10 4-14 0l-246-224c-4-4-4-11 0-15 4-4 11-5 15-1l238 218 238-218c2-1 5-2 7-2 3 0 6 1 8 3 4 4 4 11 0 15z m-84-98l-42 105c-1 4-5 7-10 7l-234 0c-5 0-9-3-10-7l-42-105-41-41c-2-2-3-4-3-7l0-86c0-6 4-10 10-10l11 0 0-32c0-6 5-11 11-11l64 0c6 0 10 5 10 11l0 32 214 0 0-32c0-6 4-11 10-11l64 0c6 0 11 5 11 11l0 32 11 0c6 0 10 4 10 10l0 86c0 3-1 5-3 7z m-279 90l220 0 34-85-288 0z m-18-256l-43 0 0 22 43 0z m299 0l-43 0 0 22 43 0z m10 43l-373 0 0 21 85 0c6 0 11 5 11 11 0 6-5 11-11 11l-85 0 0 27 36 37 312 0 36-37 0-27-85 0c-6 0-11-5-11-11 0-6 5-11 11-11l85 0 0-21z"/>
<glyph glyph-name="globe-2" unicode="&#50;" d="M446 426c0 2-1 3-3 4-30 33-69 58-113 71 0 0 0 0-1 0-23 7-47 11-73 11-141 0-256-115-256-256 0-141 115-256 256-256 141 0 256 115 256 256 0 65-25 125-66 170z m-20-8c-4-13-15-49-44-65-37 7-74-14-82-23-5-6-3-12-2-14 2-3 5-5 9-6 3-4 10-20 13-35 1-2 2-4 3-5 10-11 25-9 35-6 1-11-15-29-31-46-12-12-18-18-18-26 0-9 7-14 12-19 1-1 4-3 4-3 0 0 0-1-2-2-14-14-28-19-28-19-4-2-7-6-7-10 0-28-17-43-52-43-7 5-22 35-23 43 0 2 2 7 5 11 3 6 6 13 6 21 0 12-13 27-21 36-1 13-5 23-12 30-12 11-30 10-47 9-5 0-11-1-16-1-21 0-21 31-21 32 0 1 0 66 44 75 31 6 40 1 41 0 0-3 1-6 3-8 19-19 48-12 71-6 9 1 17 3 22 3 5 0 10 4 11 9 4 29 6 65-8 75-6 3-12 4-18 1-8-4-15-5-20-2-6 3-7 9-8 14-1 14 42 33 82 42 38-13 72-34 99-62z m-170-397c-129 0-235 106-235 235 0 129 106 235 235 235 9 0 18-1 27-2-29-10-61-28-59-53 1-14 8-25 18-31 11-6 24-6 37 0 2-8 1-25 0-43-6-1-12-2-17-4-18-4-38-9-50 0-1 3-3 7-7 10-11 9-30 11-58 5-61-12-62-92-62-96 0-18 9-53 43-53 6 0 11 0 17 1 13 0 26 1 31-4 4-3 5-9 5-18 0-3 1-6 3-8 9-9 18-21 19-24 0-3-2-7-5-12-3-6-6-12-6-20 0-11 22-64 43-64 44 0 71 20 74 57 7 3 18 9 29 20 6 6 9 12 8 18 0 9-7 15-11 19-1 1-2 2-3 3 2 3 7 8 10 11 21 21 54 56 28 82-3 3-8 4-12 2-5-2-13-5-18-3-5 20-11 31-16 38 12 6 35 15 57 9 3-1 5 0 8 1 30 15 46 46 53 67 30-40 49-89 49-143 0-129-106-235-235-235z"/>
<glyph glyph-name="hash" unicode="&#51;" d="M501 320l-148 0 31 179c1 6-3 12-9 13-5 1-11-3-12-9l-32-183-128 0 32 179c1 6-3 12-9 13-6 1-11-3-12-9l-32-183-128 0c-6 0-11-5-11-11 0-6 5-10 11-10l124 0-19-107-148 0c-6 0-11-5-11-11 0-6 5-10 11-10l145 0-28-159c-1-5 3-11 9-12 0 0 1 0 2 0 5 0 9 4 10 9l28 162 128 0-28-159c-1-5 3-11 9-12 1 0 1 0 2 0 5 0 10 4 10 9l29 162 131 0c6 0 11 4 11 10 0 6-5 11-11 11l-128 0 19 107 152 0c6 0 11 4 11 10 0 6-5 11-11 11z m-192-128l-128 0 19 107 127 0z"/>
<glyph glyph-name="heart" unicode="&#52;" d="M371 512c-44 0-92-27-115-86-23 58-70 85-113 85-80 0-122-77-122-152 0-132 127-266 229-334 4-2 9-2 13 1 9 7 228 178 228 346 0 92-60 140-120 140z"/>
<glyph glyph-name="heart-1" unicode="&#53;" d="M380 512c-46 3-100-23-124-86-24 62-76 88-121 84-57-4-114-52-114-151 0-180 220-327 229-334 2-1 4-1 6-1 2 0 5 0 7 2 9 7 228 178 228 346 0 90-58 136-111 140z m-124-464c-37 25-213 159-213 311 0 85 47 126 94 130 2 0 4 0 6 0 44 0 91-32 102-106 1-5 6-9 11-9 5 0 10 4 11 9 12 79 65 111 111 107 46-3 91-41 91-118 0-142-178-295-213-324z"/>
<glyph glyph-name="help-circle" unicode="&#54;" d="M245 491c-135 0-245-110-245-246 0-135 110-245 245-245 136 0 246 110 246 245 0 136-110 246-246 246z m0-470c-123 0-224 101-224 224 0 124 101 224 224 224 124 0 224-100 224-224 0-123-100-224-224-224z m0 352c-41 0-74-33-74-74 0-6 4-11 10-11 6 0 11 5 11 11 0 29 24 53 53 53 30 0 54-24 54-53 0-30-24-54-54-54-6 0-10-4-10-10l0-64c0-6 4-11 10-11 6 0 11 5 11 11l0 54c36 5 64 36 64 74 0 41-33 74-75 74z m22-256c0-11-10-21-22-21-11 0-21 10-21 21 0 12 10 22 21 22 12 0 22-10 22-22z"/>
<glyph glyph-name="home-1" unicode="&#55;" d="M437 224c-6 0-10-5-10-11l0-192-107 0 0 139c0 6-5 11-11 11l-106 0c-6 0-11-5-11-11l0-139-107 0 0 203c0 6-4 11-10 11-6 0-11-5-11-11l0-213c0-6 5-11 11-11l128 0c6 0 10 5 10 11l0 138 86 0 0-138c0-6 4-11 10-11l128 0c6 0 11 5 11 11l0 202c0 6-5 11-11 11z m72 18l-245 246c-5 4-11 4-16 0l-245-246c-4-4-4-11 0-15 4-4 11-4 15 0l238 238 238-238c2-2 5-3 7-3 3 0 6 1 8 3 4 4 4 11 0 15z m-168 206l64 0 0-64c0-6 5-11 11-11 6 0 11 5 11 11l0 75c0 6-5 10-11 10l-75 0c-6 0-10-4-10-10 0-6 4-11 10-11z"/>
<glyph glyph-name="hot-topic" unicode="&#56;" d="M192 511c-4 2-10 1-12-3-3-4-3-9 0-13 53-70 56-180 8-244-11 15-18 31-21 50-1 3-4 6-7 8-3 1-7 0-10-2-61-43-85-117-62-188 23-72 88-119 164-119 85 0 143 49 160 135 24 130-58 313-220 376z m199-372c-14-75-65-118-139-118-67 0-123 41-144 105-15 46-10 109 42 154 6-19 16-36 30-53 2-2 5-4 8-4 3 0 6 2 8 4 55 60 61 169 20 250 131-70 196-225 175-338z m-128 74c-4 0-8-2-9-5-2-3-2-7-1-11 10-17-3-37-8-43-12-17-32-28-44-25-3 1-7 0-10-3-2-2-3-6-3-9 6-31 32-53 63-53 35 0 63 28 64 64 1 23-4 55-21 72-9 9-19 13-31 13z m-12-128c-16 0-30 9-37 23 18 3 37 18 48 33 11 15 17 30 16 44 0 0 0 0 0 0 10-10 17-33 16-57-1-24-20-43-43-43z"/>
<glyph glyph-name="house-measurement" unicode="&#57;" d="M437 171c-6 0-10-5-10-11l0-117-214 0 0 117c0 6-4 11-10 11-6 0-11-5-11-11l0-128c0-6 5-11 11-11l234 0c6 0 11 5 11 11l0 128c0 6-5 11-11 11z m72 7l-181 182c-5 4-11 4-16 0l-181-182c-4-4-4-11 0-15 4-4 11-4 15 0l174 174 174-174c2-2 5-3 7-3 3 0 6 1 8 3 4 4 4 11 0 15z m-29 67c6 0 11 5 11 11l0 75c0 6-5 10-11 10l-75 0c-6 0-10-4-10-10 0-6 4-11 10-11l64 0 0-64c0-6 5-11 11-11z m-128-74c6 0 11 4 11 10l0 64c0 6-5 11-11 11l-64 0c-6 0-11-5-11-11l0-64c0-6 5-10 11-10z m-53 64l42 0 0-43-42 0z m181 170c6 0 11 5 11 11l0 85c0 6-5 11-11 11l-469 0c-6 0-11-5-11-11l0-469c0-6 5-11 11-11l85 0c6 0 11 5 11 11l0 373z m-11 22l-42 0 0 32c0 6-5 10-11 10-6 0-11-4-11-10l0-32-64 0 0 32c0 6-4 10-10 10-6 0-11-4-11-10l0-32-64 0 0 32c0 6-5 10-11 10-6 0-10-4-10-10l0-32-64 0 0 32c0 6-5 10-11 10-6 0-11-4-11-10l0-32-42 0 0 64 362 0z m-448 64l64 0 0-64-64 0z m0-448l0 362 64 0 0-42-32 0c-6 0-10-5-10-11 0-6 4-11 10-11l32 0 0-64-32 0c-6 0-10-4-10-10 0-6 4-11 10-11l32 0 0-64-32 0c-6 0-10-5-10-11 0-6 4-10 10-10l32 0 0-64-32 0c-6 0-10-5-10-11 0-6 4-11 10-11l32 0 0-42z"/>
<glyph glyph-name="infomation-circle" unicode="&#33;" d="M245 491c-135 0-245-110-245-246 0-135 110-245 245-245 136 0 246 110 246 245 0 136-110 246-246 246z m0-470c-123 0-224 101-224 224 0 124 101 224 224 224 124 0 224-100 224-224 0-123-100-224-224-224z m64 86l-53 0 0 181c0 6-5 11-11 11l-42 0c-6 0-11-5-11-11 0-6 5-11 11-11l32 0 0-170-54 0c-6 0-10-5-10-11 0-6 4-11 10-11l128 0c6 0 11 5 11 11 0 6-5 11-11 11z m-53 266c0-11-10-21-21-21-12 0-22 10-22 21 0 12 10 22 22 22 11 0 21-10 21-22z"/>
<glyph glyph-name="landscape-mode" unicode="&#34;" d="M75 64l-54 0 0 53c0 6-4 11-10 11-6 0-11-5-11-11l0-64c0-6 5-10 11-10l64 0c6 0 10 4 10 10 0 6-4 11-10 11z m-64 320c6 0 10 5 10 11l0 53 54 0c6 0 10 5 10 11 0 6-4 10-10 10l-64 0c-6 0-11-4-11-10l0-64c0-6 5-11 11-11z m490 85l-64 0c-6 0-10-4-10-10 0-6 4-11 10-11l54 0 0-53c0-6 4-11 10-11 6 0 11 5 11 11l0 64c0 6-5 10-11 10z m0-341c-6 0-10-5-10-11l0-53-54 0c-6 0-10-5-10-11 0-6 4-10 10-10l64 0c6 0 11 4 11 10l0 64c0 6-5 11-11 11z m-330 192c23 0 42 19 42 43 0 23-19 42-42 42-24 0-43-19-43-42 0-24 19-43 43-43z m0 64c11 0 21-10 21-21 0-12-10-22-21-22-12 0-22 10-22 22 0 11 10 21 22 21z m277-245c0 6-5 10-11 10l-24 0-62 164c-1 4-4 6-8 7-4 0-8-1-11-5l-77-116-44 53c-2 3-6 4-9 4-4 0-7-2-8-5l-61-102-58 0c-6 0-11-4-11-10 0-6 5-11 11-11l362 0c6 0 11 5 11 11z m-244 88l44-52c2-3 5-4 9-4 3 0 6 2 8 4l74 111 51-137-232 0z"/>
<glyph glyph-name="location-pin-2" unicode="&#35;" d="M256 512c-94 0-171-77-171-171 0-90 155-326 162-336 2-3 5-5 9-5 4 0 7 2 9 5 7 10 162 246 162 336 0 94-77 171-171 171z m0-245c-41 0-75 33-75 74 0 41 34 75 75 75 41 0 75-34 75-75 0-41-34-74-75-74z"/>
<glyph glyph-name="location-pin-2-1" unicode="&#36;" d="M256 512c-94 0-171-77-171-171 0-90 155-326 162-336 2-3 5-5 9-5 4 0 7 2 9 5 7 10 162 246 162 336 0 94-77 171-171 171z m0-482c-33 53-149 239-149 311 0 83 67 150 149 150 82 0 149-67 149-150 0-72-116-258-149-311z m0 386c-41 0-75-33-75-75 0-41 34-74 75-74 41 0 75 33 75 74 0 42-34 75-75 75z m0-128c-29 0-53 24-53 53 0 30 24 54 53 54 29 0 53-24 53-54 0-29-24-53-53-53z"/>
<glyph glyph-name="location-pin-medium" unicode="&#37;" d="M245 448c-53 0-96-43-96-96 0-49 38-90 86-95l0-182c0-6 4-11 10-11 6 0 11 5 11 11l0 182c48 5 85 46 85 95 0 53-43 96-96 96z m43-107c-6 0-11 5-11 11 0 18-14 32-32 32-6 0-10 5-10 11 0 5 4 10 10 10 30 0 54-24 54-53 0-6-5-11-11-11z"/>
<glyph glyph-name="location-pin-medium-1" unicode="&#38;" d="M341 352c0 53-43 96-96 96-53 0-96-43-96-96 0-49 38-90 86-95l0-182c0-6 4-11 10-11 6 0 11 5 11 11l0 182c48 5 85 46 85 95z m-96-75c-41 0-74 34-74 75 0 41 33 75 74 75 42 0 75-34 75-75 0-41-33-75-75-75z m0 128c-6 0-10-4-10-10 0-6 4-11 10-11 18 0 32-14 32-32 0-6 5-11 11-11 6 0 11 5 11 11 0 29-24 53-54 53z"/>
<glyph glyph-name="login-3" unicode="&#39;" d="M480 256l-294 0 67 67c4 4 4 11 0 15-4 4-11 4-15 0l-86-85c-4-4-4-11 0-15l86-86c4-4 11-4 15 0 4 5 4 11 0 16l-67 67 294 0c6 0 11 4 11 10 0 6-5 11-11 11z m-16-97c-5 3-12 0-14-5-36-81-117-133-205-133-123 0-224 101-224 224 0 124 101 224 224 224 88 0 168-51 204-131 3-5 9-8 14-5 6 2 8 8 6 14-40 87-128 144-224 144-135 0-245-110-245-246 0-135 110-245 245-245 97 0 185 57 224 145 3 5 0 12-5 14z"/>
<glyph glyph-name="logo-facebook" unicode="&#40;" d="M400 353l-91 0 0 40c0 19 13 24 22 24 9 0 64 0 64 0l0 84-93 0c-83 0-99-62-99-102l0-46-64 0 0-86 64 0c0-111 0-256 0-256l106 0c0 0 0 147 0 256l82 0z"/>
<glyph glyph-name="logo-google-plus-1" unicode="&#41;" d="M242 236c-15 11-29 27-29 32 0 9 0 14 21 29 26 21 40 48 40 77 0 25-8 48-21 64l10 0c2 0 5 1 6 2l29 22c4 2 6 7 4 11-1 4-5 7-10 7l-130 0c-14 0-28-3-43-7-47-17-80-57-80-99 0-58 45-103 106-104-1-5-2-10-2-14 0-9 3-18 7-26 0 0-1 0-1 0-58 0-111-29-131-71-5-11-7-22-7-33 0-11 2-21 8-31 12-22 39-39 75-49 19-4 39-7 60-7 19 0 37 3 53 7 52 15 85 53 85 97 0 42-13 68-50 93z m-164-96c0 30 39 57 83 57l1 0c10 0 20-1 28-4 3-2 6-4 9-6 21-14 34-23 38-38 1-4 1-7 1-11 0-38-28-57-84-57-43 0-76 26-76 59z m40 289c7 8 16 12 27 12l1 0c29-1 56-33 61-71 3-22-2-42-13-55-7-8-16-12-26-12l-1 0c-28 1-56 34-61 73-3 21 2 41 12 53z m383-120l-64 0 0 64-42 0 0-64-64 0 0-42 64 0 0-64 42 0 0 64 64 0z"/>
<glyph glyph-name="logo-linkedin" unicode="&#42;" d="M139 53l-106 0 0 278 106 0z m-53 320l-1 0c-32 0-53 26-53 53 0 29 22 52 54 52 33 0 53-24 54-52 0-28-21-53-54-53z m245-128c-23 0-42-19-42-42l0-150-107 0c0 0 1 256 0 278l107 0 0-32c0 0 33 31 84 31 63 0 108-46 108-135l0-142-107 0 0 150c0 23-19 42-43 42z"/>
<glyph glyph-name="logo-pinterest" unicode="&#43;" d="M259 501c-134 0-202-96-202-176 0-48 19-91 58-107 7-3 12 0 14 7 2 5 5 17 6 22 2 7 1 10-4 16-11 13-19 31-19 55 0 71 54 135 139 135 76 0 117-46 117-108 0-81-36-150-89-150-29 0-51 25-44 55 8 35 25 74 25 100 0 23-13 42-39 42-30 0-54-31-54-73 0-27 9-45 9-45 0 0-31-130-36-153-11-46-2-102-1-107 0-4 5-4 7-2 3 4 38 48 51 92 3 13 19 78 19 78 10-19 39-35 69-35 91 0 152 82 152 193 0 83-70 161-178 161z"/>
<glyph glyph-name="logo-twitter-bird" unicode="&#44;" d="M500 409c-17-8-32-8-47 0 20 12 21 20 28 43-19-12-40-20-62-24-17 19-43 31-71 31-53 0-96-44-96-97 0-8 0-15 2-22-81 4-152 42-200 101-8-14-13-31-13-49 0-33 17-63 43-81-16 1-31 5-44 13 0-1 0-1 0-2 0-47 34-86 78-95-14-4-29-4-44-1 13-39 48-67 91-68-42-32-93-46-144-40 43-27 94-43 149-43 178 0 276 147 276 275 0 5 0 9-1 13 19 14 42 26 55 46z"/>
<glyph glyph-name="logout-3" unicode="&#45;" d="M259 168c-4-5-4-11 0-16 4-4 11-4 15 0l86 86c4 4 4 11 0 15l-86 85c-4 4-11 4-15 0-4-4-4-11 0-15l67-67-294 0c-6 0-11-5-11-11 0-6 5-10 11-10l294 0z m8 323c-96 0-184-57-224-144-2-6 0-12 6-14 5-3 11 0 14 5 36 80 116 131 204 131 123 0 224-100 224-224 0-123-101-224-224-224-88 0-169 52-205 133-2 5-9 8-14 5-5-2-8-9-5-14 39-88 127-145 224-145 135 0 245 110 245 245 0 136-110 246-245 246z"/>
<glyph glyph-name="measuring-tool" unicode="&#46;" d="M501 512l-490 0c-6 0-11-5-11-11l0-490c0-6 5-11 11-11l373 0c3 0 6 1 8 3l117 117c2 2 3 5 3 8l0 373c0 6-5 11-11 11z m-10-107l-43 0 0 54c0 6-5 10-11 10-6 0-10-4-10-10l0-54-64 0 0 32c0 6-5 11-11 11-6 0-11-5-11-11l0-32-64 0 0 32c0 6-4 11-10 11-6 0-11-5-11-11l0-32-64 0 0 54c0 6-5 10-11 10-6 0-10-4-10-10l0-54-43 0 0 86 363 0z m-470 86l86 0 0-86-86 0z m0-107l86 0 0-43-54 0c-6 0-10-4-10-10 0-6 4-11 10-11l54 0 0-64-32 0c-6 0-11-5-11-11 0-6 5-10 11-10l32 0 0-64-32 0c-6 0-11-5-11-11 0-6 5-11 11-11l32 0 0-64-54 0c-6 0-10-4-10-10 0-6 4-11 10-11l54 0 0-43-86 0z m107 0l363 0 0-235-118 0c-6 0-10-4-10-10l0-118-235 0z m256-358l0 102 102 0z"/>
<glyph glyph-name="mobile-phone-portrait" unicode="&#47;" d="M352 512l-192 0c-29 0-53-24-53-53l0-406c0-29 24-53 53-53l192 0c29 0 53 24 53 53l0 406c0 29-24 53-53 53z m-224-107l256 0 0-298-256 0z m32 86l192 0c18 0 32-15 32-32l0-32-256 0 0 32c0 17 14 32 32 32z m192-470l-192 0c-18 0-32 15-32 32l0 32 256 0 0-32c0-17-14-32-32-32z m-149 427l106 0c6 0 11 5 11 11 0 6-5 10-11 10l-106 0c-6 0-11-4-11-10 0-6 5-11 11-11z m53-373c-12 0-21-10-21-22 0-11 9-21 21-21 12 0 21 10 21 21 0 12-9 22-21 22z m0-32l0 10 0 0z"/>
<glyph glyph-name="pen-2" unicode="&#58;" d="M482 422l-60 60c-4 4-11 4-15 0l-9-8c-20 13-49 11-67-7l-120-120c-4-5-4-11 0-16 2-2 5-3 7-3 3 0 6 1 8 3l121 121c9 10 24 11 36 6l-308-308c-4-4-4-11 0-15l60-60c4-4 11-4 15 0l332 332c2 2 3 5 3 7 0 3-1 6-3 8z m-339-324l-45 45 196 196 22-23 23-22z m211 211l-23 22-22 23 105 106 46-46z m-279-204c-4 4-11 4-15 0-4-4-4-11 0-15l7-7-37-38c-4-4-4-11 0-15 4-4 11-4 15 0l38 37 7-7c4-4 11-4 15 0 4 4 4 11 0 15z"/>
<glyph glyph-name="phone-3" unicode="&#59;" d="M450 450c-129 26-259 26-388 0-35-7-62-39-62-73l0-46c0-31 25-58 53-58l64 0c29 0 54 27 54 58l0 26c56 5 114 5 170 0l0-26c0-31 25-58 54-58l64 0c28 0 53 27 53 58l0 46c0 34-27 66-62 73z m41-119c0-19-16-36-32-36l-64 0c-17 0-32 17-32 36l0 36c0 5-4 10-10 10-32 3-65 5-97 5-32 0-65-2-97-5-6 0-10-5-10-10l0-36c0-19-15-36-32-36l-64 0c-16 0-32 17-32 36l0 46c0 24 20 47 45 52 126 25 254 25 380 0 25-5 45-28 45-52l0-46z m-107-235c0-18-14-32-32-32l-213 0c-18 0-32 14-32 32l0 160-22 0 0-160c0-29 24-53 54-53l213 0c29 0 53 24 53 53l0 160-21 0z m-213 139l21 0 0-22-21 0z m64 0l21 0 0-22-21 0z m64 0l21 0 0-22-21 0z m-128-43l21 0 0-21-21 0z m64 0l21 0 0-21-21 0z m64 0l21 0 0-21-21 0z m-128-43l21 0 0-21-21 0z m64 0l21 0 0-21-21 0z m64 0l21 0 0-21-21 0z"/>
<glyph glyph-name="phone-5" unicode="&#60;" d="M473 138l-52 53c-12 11-27 17-43 17 0 0 0 0 0 0-16 0-31-6-42-17l-11-11c-52 43-102 93-145 145l11 11c23 23 23 61 0 85l-53 52c-22 23-62 23-85 0l-28-29c-29-28-33-73-11-106 84-128 196-240 324-324 14-9 30-14 46-14 22 0 44 9 60 25l29 28c11 12 18 27 18 43 0 16-7 31-18 42z m-15-69l-29-29c-21-21-54-25-79-8-126 83-235 192-318 318-17 25-13 58 8 79l29 29c7 8 17 11 27 11 10 0 20-3 27-11l53-52c15-15 15-40 0-55l-18-17c-4-4-4-11-1-15 48-58 104-114 162-162 4-3 11-3 15 1l17 18c7 7 17 11 27 11l0 0c11 0 20-4 28-11l52-53c7-7 11-17 11-27 0-10-4-20-11-27z"/>
<glyph glyph-name="print-text" unicode="&#61;" d="M459 363l-406 0c-29 0-53-24-53-54l0-128c0-29 24-53 53-53l54 0 0-96c0-6 4-11 10-11l278 0c6 0 10 5 10 11l0 96 54 0c29 0 53 24 53 53l0 128c0 30-24 54-53 54z m-75-320l-256 0 0 149 256 0z m107 138c0-17-15-32-32-32l-54 0 0 54c0 6-4 10-10 10l-278 0c-6 0-10-4-10-10l0-54-54 0c-17 0-32 15-32 32l0 128c0 18 15 32 32 32l406 0c17 0 32-14 32-32z m-374 203c6 0 11 5 11 11l0 74 192 0 0-53c0-6 5-11 11-11l53 0 0-10c0-6 5-11 11-11 6 0 10 5 10 11l0 21c0 1 0 3 0 4-1 1-2 3-3 4l-64 64c-1 1-2 1-3 2-2 0-3 1-4 1l-214 0c-6 0-10-5-10-11l0-85c0-6 4-11 10-11z m224 70l28-27-28 0z m-266-134c-18 0-32-14-32-32 0-18 14-32 32-32 17 0 32 14 32 32 0 18-15 32-32 32z m0-43c-6 0-11 5-11 11 0 6 5 11 11 11 6 0 10-5 10-11 0-6-4-11-10-11z m277-106l-192 0c-6 0-11-5-11-11 0-6 5-11 11-11l192 0c6 0 11 5 11 11 0 6-5 11-11 11z m0-43l-192 0c-6 0-11-5-11-11 0-6 5-10 11-10l192 0c6 0 11 4 11 10 0 6-5 11-11 11z m0-43l-192 0c-6 0-11-4-11-10 0-6 5-11 11-11l192 0c6 0 11 5 11 11 0 6-5 10-11 10z"/>
<glyph glyph-name="rank-army-star-1" unicode="&#62;" d="M427 309l-126 18-56 113-56-113-126-18 91-89-21-124 112 59 113-59-22 124z"/>
<glyph glyph-name="rank-army-star-1-1" unicode="&#63;" d="M415 306c-1 4-4 7-8 8l-104 15-47 94c-4 7-16 7-19 0l-47-94-104-15c-4-1-8-4-9-8-1-3 0-8 3-10l75-74-18-103c0-4 1-8 5-10 2-2 4-2 6-2 2 0 3 0 5 1l93 49 94-49c3-2 8-2 11 1 3 2 5 6 4 10l-18 103 76 74c3 2 4 7 2 10z m-97-72c-2-3-3-6-3-10l15-87-79 41c-1 1-3 1-5 1-1 0-3 0-5-1l-79-41 15 87c1 4 0 7-3 10l-64 62 89 12c3 1 6 3 8 6l39 80 40-80c1-3 4-5 8-6l88-12z"/>
<glyph glyph-name="rank-army-star-2" unicode="&#64;" d="M511 334c-1 4-5 7-10 7l-173 0-62 164c-1 4-5 7-10 7-5 0-9-3-10-7l-62-164-173 0c-5 0-9-3-10-7-2-4-1-9 3-12l144-123-62-185c-2-4 0-9 4-12 3-3 9-3 12 0l154 113 154-113c3-3 9-3 12 0 4 3 6 8 4 12l-61 185 143 123c4 3 5 8 3 12z"/>
<glyph glyph-name="rank-army-star-2-1" unicode="&#91;" d="M511 334c-1 5-5 7-10 7l-174 0-61 164c-3 8-17 8-20 0l-61-164-174 0c-5 0-9-2-10-7-2-4-1-9 3-11l144-124-62-185c-2-4 0-9 4-12 3-3 9-3 12 0l154 113 154-113c2-1 4-2 6-2 2 0 4 1 6 2 4 3 6 8 4 12l-62 185 144 124c4 2 5 7 3 11z m-166-123c-3-3-4-8-3-12l53-160-133 98c-2 1-4 2-6 2-2 0-4-1-6-2l-133-98 53 160c2 4 0 9-3 12l-127 109 152 0c4 0 8 3 10 7l54 144 54-144c2-4 6-7 10-7l152 0z"/>
<glyph glyph-name="remove-1" unicode="&#93;" d="M509 509c-4 4-11 4-15 0l-238-238-238 238c-4 4-11 4-15 0-4-4-4-11 0-15l238-238-238-238c-4-4-4-11 0-15 4-4 11-4 15 0l238 238 238-238c4-4 11-4 15 0 4 4 4 11 0 15l-238 238 238 238c4 4 4 11 0 15z"/>
<glyph glyph-name="remove-box" unicode="&#94;" d="M343 365c-4 4-11 4-15 0l-83-83-83 83c-4 4-11 4-15 0-4-4-4-11 0-15l83-83-83-83c-4-4-4-11 0-15 4-5 11-5 15 0l83 83 83-83c4-5 11-5 15 0 5 4 5 11 0 15l-83 83 83 83c5 4 5 11 0 15z m-332-344l469 0c6 0 11 5 11 11l0 469c0 6-5 11-11 11l-469 0c-6 0-11-5-11-11l0-469c0-6 5-11 11-11z m10 470l448 0 0-448-448 0z"/>
<glyph glyph-name="remove-circle-1" unicode="&#95;" d="M245 21c136 0 246 110 246 246 0 135-110 245-246 245-135 0-245-110-245-245 0-136 110-246 245-246z m0 470c124 0 224-101 224-224 0-124-100-224-224-224-123 0-224 100-224 224 0 123 101 224 224 224z m-98-322c4-5 11-5 15 0l83 83 83-83c4-5 11-5 15 0 5 4 5 11 0 15l-83 83 83 83c5 4 5 11 0 15-4 4-11 4-15 0l-83-83-83 83c-4 4-11 4-15 0-4-4-4-11 0-15l83-83-83-83c-4-4-4-11 0-15z"/>
<glyph glyph-name="share" unicode="&#96;" d="M416 192c-34 0-63-17-80-44l-150 75c8 21 8 45 0 66l150 75c17-27 46-44 80-44 53 0 96 43 96 96 0 53-43 96-96 96-66 0-113-66-90-129l-149-75c-18 27-48 44-81 44-53 0-96-43-96-96 0-53 43-96 96-96 33 0 63 17 81 44l149-75c-23-63 24-129 90-129 53 0 96 43 96 96 0 53-43 96-96 96z"/>
<glyph glyph-name="shower" unicode="&#123;" d="M320 512c-71 0-128-57-128-128l0-1c-48-5-85-46-85-95l0-21c0-6 4-11 10-11l171 0c6 0 11 5 11 11l0 21c0 49-38 90-86 95l0 1c0 59 48 107 107 107 59 0 107-48 107-107l0-384 21 0 0 384c0 71-57 128-128 128z m-43-224l0-11-149 0 0 11c0 41 33 75 75 75 41 0 74-34 74-75z m-74-85c-6 0-11-5-11-11l0-43c0-6 5-10 11-10 6 0 10 4 10 10l0 43c0 6-4 11-10 11z m0-128c-6 0-11-5-11-11l0-43c0-6 5-10 11-10 6 0 10 4 10 10l0 43c0 6-4 11-10 11z m89 75l-7 43c-1 5-6 9-12 8-6 0-10-6-9-12l7-42c1-5 5-9 10-9 1 0 1 0 2 0 6 1 10 7 9 12z m1-75c-6-1-10-6-9-12l7-42c1-6 5-9 10-9 1 0 2 0 2 0 6 1 10 6 9 12l-7 42c-1 6-6 10-12 9z m-162 126c-6 1-12-3-12-8l-7-43c-1-5 3-11 9-12 0 0 1 0 1 0 5 0 10 4 11 9l7 42c1 6-3 12-9 12z m-20-126c-6 1-12-3-13-9l-6-42c-1-6 3-11 8-12 1 0 2 0 2 0 5 0 10 3 11 9l6 42c1 6-3 11-8 12z"/>
<glyph glyph-name="shrink-diagonal-1" unicode="&#124;" d="M181 192l-106 0c-6 0-11-5-11-11 0-6 5-10 11-10l81 0-153-153c-4-4-4-11 0-15 4-4 11-4 15 0l153 153 0-81c0-6 4-11 10-11 6 0 11 5 11 11l0 106c0 6-5 11-11 11z m328 317c-4 4-11 4-15 0l-153-153 0 81c0 6-4 11-10 11-6 0-11-5-11-11l0-106c0-6 5-11 11-11l106 0c6 0 11 5 11 11 0 6-5 10-11 10l-81 0 153 153c4 4 4 11 0 15z"/>
<glyph glyph-name="synchronize-1" unicode="&#125;" d="M291 469c-106-4-203-86-206-209l-44 66c-3 5-10 6-15 3-5-3-6-10-3-15l64-96c4-6 12-6 17-1l75 85c4 5 3 12-1 15-5 4-11 4-15-1l-57-65c-1 115 87 193 186 197 106 5 195-79 199-185 3-106-79-195-185-199-77-3-149 41-182 111-2 6-8 8-14 6-5-3-7-9-5-15 35-75 112-126 201-123 118 4 210 103 206 221-4 118-105 209-221 205z"/>
<glyph glyph-name="video-camera" unicode="&#126;" d="M309 405l-277 0c-18 0-32-14-32-32l0-234c0-18 14-32 32-32l277 0c18 0 32 14 32 32l0 234c0 18-14 32-32 32z m11-266c0-6-5-11-11-11l-277 0c-6 0-11 5-11 11l0 234c0 6 5 11 11 11l277 0c6 0 11-5 11-11z m187 243c-3 2-7 3-10 1l-128-64c-4-2-6-6-6-10l0-106c0-4 2-8 6-10l128-64c1-1 3-1 4-1 2 0 4 1 6 2 3 2 5 5 5 9l0 234c0 4-2 7-5 9z m-16-226l-107 53 0 94 107 53z"/>
<glyph glyph-name="video-camera-1" unicode="&#92;" d="M309 405l-277 0c-18 0-32-14-32-32l0-234c0-18 14-32 32-32l277 0c18 0 32 14 32 32l0 234c0 18-14 32-32 32z m188-22l-128-64c-4-2-6-6-6-10l0-106c0-4 2-8 6-10l128-64c7-3 15 2 15 10l0 234c0 8-8 13-15 10z"/>
<glyph glyph-name="view-1" unicode="&#57344;" d="M510 263c-5 5-115 142-254 142-139 0-249-137-254-142-3-4-3-10 0-14 5-5 115-142 254-142 139 0 249 137 254 142 3 4 3 10 0 14z m-254-135c-112 0-208 101-231 128 23 27 119 128 231 128 112 0 208-101 231-128-23-27-119-128-231-128z m0 224c-53 0-96-43-96-96 0-53 43-96 96-96 53 0 96 43 96 96 0 53-43 96-96 96z m0-171c-41 0-75 34-75 75 0 41 34 75 75 75 41 0 75-34 75-75 0-41-34-75-75-75z m0 128c-6 0-11-4-11-10 0-6 5-11 11-11 18 0 32-14 32-32 0-18-14-32-32-32-18 0-32 14-32 32 0 6-5 11-11 11-6 0-10-5-10-11 0-29 24-53 53-53 29 0 53 24 53 53 0 29-24 53-53 53z"/>
<glyph glyph-name="view-headline" unicode="&#57345;" d="M501 491l-490 0c-6 0-11-5-11-11l0-107c0-6 5-10 11-10l490 0c6 0 11 4 11 10l0 107c0 6-5 11-11 11z m0-171l-490 0c-6 0-11-5-11-11l0-106c0-6 5-11 11-11l490 0c6 0 11 5 11 11l0 106c0 6-5 11-11 11z m0-171l-490 0c-6 0-11-4-11-10l0-107c0-6 5-11 11-11l490 0c6 0 11 5 11 11l0 107c0 6-5 10-11 10z"/>
<glyph glyph-name="view-headline-1" unicode="&#57346;" d="M501 491l-490 0c-6 0-11-5-11-11l0-107c0-6 5-10 11-10l490 0c6 0 11 4 11 10l0 107c0 6-5 11-11 11z m-10-107l-470 0 0 85 470 0z m10-64l-490 0c-6 0-11-5-11-11l0-106c0-6 5-11 11-11l490 0c6 0 11 5 11 11l0 106c0 6-5 11-11 11z m-10-107l-470 0 0 86 470 0z m10-64l-490 0c-6 0-11-4-11-10l0-107c0-6 5-11 11-11l490 0c6 0 11 5 11 11l0 107c0 6-5 10-11 10z m-10-106l-470 0 0 85 470 0z"/>
<glyph glyph-name="view-module-1" unicode="&#57347;" d="M309 512l-128 0c-6 0-10-5-10-11l0-128c0-6 4-10 10-10l128 0c6 0 11 4 11 10l0 128c0 6-5 11-11 11z m-10-128l-107 0 0 107 107 0z m-160 128l-128 0c-6 0-11-5-11-11l0-128c0-6 5-10 11-10l128 0c6 0 10 4 10 10l0 128c0 6-4 11-10 11z m-11-128l-107 0 0 107 107 0z m352 128l-128 0c-6 0-11-5-11-11l0-128c0-6 5-10 11-10l128 0c6 0 11 4 11 10l0 128c0 6-5 11-11 11z m-11-128l-106 0 0 107 106 0z m-160-43l-128 0c-6 0-10-4-10-10l0-128c0-6 4-11 10-11l128 0c6 0 11 5 11 11l0 128c0 6-5 10-11 10z m-10-128l-107 0 0 107 107 0z m-160 128l-128 0c-6 0-11-4-11-10l0-128c0-6 5-11 11-11l128 0c6 0 10 5 10 11l0 128c0 6-4 10-10 10z m-11-128l-107 0 0 107 107 0z m352 128l-128 0c-6 0-11-4-11-10l0-128c0-6 5-11 11-11l128 0c6 0 11 5 11 11l0 128c0 6-5 10-11 10z m-11-128l-106 0 0 107 106 0z m-160-42l-128 0c-6 0-10-5-10-11l0-128c0-6 4-11 10-11l128 0c6 0 11 5 11 11l0 128c0 6-5 11-11 11z m-10-128l-107 0 0 106 107 0z m-160 128l-128 0c-6 0-11-5-11-11l0-128c0-6 5-11 11-11l128 0c6 0 10 5 10 11l0 128c0 6-4 11-10 11z m-11-128l-107 0 0 106 107 0z m352 128l-128 0c-6 0-11-5-11-11l0-128c0-6 5-11 11-11l128 0c6 0 11 5 11 11l0 128c0 6-5 11-11 11z m-11-128l-106 0 0 106 106 0z"/>
<glyph glyph-name="view-module-1-1" unicode="&#57348;" d="M309 512l-128 0c-6 0-10-5-10-11l0-128c0-6 4-10 10-10l128 0c6 0 11 4 11 10l0 128c0 6-5 11-11 11z m-170 0l-128 0c-6 0-11-5-11-11l0-128c0-6 5-10 11-10l128 0c6 0 10 4 10 10l0 128c0 6-4 11-10 11z m341 0l-128 0c-6 0-11-5-11-11l0-128c0-6 5-10 11-10l128 0c6 0 11 4 11 10l0 128c0 6-5 11-11 11z m-171-171l-128 0c-6 0-10-4-10-10l0-128c0-6 4-11 10-11l128 0c6 0 11 5 11 11l0 128c0 6-5 10-11 10z m-170 0l-128 0c-6 0-11-4-11-10l0-128c0-6 5-11 11-11l128 0c6 0 10 5 10 11l0 128c0 6-4 10-10 10z m341 0l-128 0c-6 0-11-4-11-10l0-128c0-6 5-11 11-11l128 0c6 0 11 5 11 11l0 128c0 6-5 10-11 10z m-171-170l-128 0c-6 0-10-5-10-11l0-128c0-6 4-11 10-11l128 0c6 0 11 5 11 11l0 128c0 6-5 11-11 11z m-170 0l-128 0c-6 0-11-5-11-11l0-128c0-6 5-11 11-11l128 0c6 0 10 5 10 11l0 128c0 6-4 11-10 11z m341 0l-128 0c-6 0-11-5-11-11l0-128c0-6 5-11 11-11l128 0c6 0 11 5 11 11l0 128c0 6-5 11-11 11z"/>
<glyph glyph-name="clock-2" unicode="&#57349;" d="M256 0c-141 0-256 115-256 256 0 141 115 256 256 256 141 0 256-115 256-256 0-141-115-256-256-256z m0 491c-129 0-235-106-235-235 0-129 106-235 235-235 129 0 235 106 235 235 0 129-106 235-235 235z m110-360l-128 117c-2 2-3 5-3 8l0 117c0 6 4 11 10 11 6 0 11-5 11-11l0-112 125-114c4-4 4-11 0-16-4-4-11-4-15 0z"/>
<glyph glyph-name="subtract-1" unicode="&#57350;" d="M501 277l-490 0c-6 0-11-4-11-10 0-6 5-11 11-11l490 0c6 0 11 5 11 11 0 6-5 10-11 10z"/>
</font>
</defs>
</svg>
